<svg fill="none" height="16" viewBox="0 0 16 16" width="16" xmlns="http://www.w3.org/2000/svg"><path d="m8.20502 2.00519c-.15207 0-.28828.06788-.37998.17499l-.05024.03623c-1.50457-.44245-3.21156-.10025-4.40305 1.02658-1.05651.99916-1.46069 2.38163-1.21255 3.67408l-.01537.01433-.67126.63482c-.578255.54687-.578255 1.43353 0 1.98041.34285.32424.812.45627 1.25768.39599.06412.23318.19275.45368.38588.63628.26125.2471.59584.3826.93751.4064.02514.3232.16836.6397.42967.8868.26132.2472.596.3826.93775.4064.0251.3232.16833.6398.42969.887.53118.5023 1.36553.5432 1.94607.1227l.32976.3118c.58108.5496 1.52321.5496 2.10432 0 .2604-.2462.404-.5608.4311-.8826.3394-.0251.6714-.1604.9312-.406.2604-.2463.4036-.5614.4295-.8834.3354-.0272.6628-.1622.9196-.405.2019-.191.3333-.4234.3943-.6683.439.053.8984-.08 1.2355-.39883.5783-.54688.5783-1.43354 0-1.98041l-.5938-.5616.1132-.41926c.2628-.97356.13-2.0042-.369-2.88676-.7358-1.30127-2.1587-2.09929-3.6914-2.09929h-1.01687c-.04579-.00224-.09183-.00336-.1381-.00336zm4.37208 5.45754.4864.47871c.0305.03007.0644.05569.1006.07659l.6815.64455c.177.16739.177.43878 0 .60617s-.464.16739-.641 0l-1.1395-1.0777c-.2006-.18974-.5259-.18974-.7266 0l-.0113.0107c-.2006.18974-.2006.49737 0 .68711l.8885.84027c.1772.16754.1772.43917 0 .60667-.1616.1529-.4158.1665-.5931.0399-.2053-.1465-.4936-.1269-.6746.0459-.1809.1729-.1989.4457-.0419.6384.1367.1678.1233.4104-.0395.5643-.1637.1548-.4223.1667-.5999.0349-.204-.1514-.49534-.1352-.67927.0377s-.20276.4483-.0439.6422c.13965.1704.12633.4173-.0392.5738-.17982.1701-.47138.1701-.6512 0l-.32064-.3032.08357-.079c.57825-.5469.57825-1.4336 0-1.9805-.26132-.2471-.596-.3825-.93775-.4063-.0251-.32326-.16833-.63984-.42969-.88701-.26125-.24707-.59584-.38252-.93751-.40634-.02514-.32319-.16836-.6397-.42967-.88683-.34285-.32424-.812-.45624-1.25768-.396-.06412-.23313-.19275-.45368-.38588-.63632-.30304-.2866-.70476-.423-1.10173-.40921-.10753-.92382.21318-1.88377.96215-2.59209.70794-.66952 1.65361-.97718 2.58004-.92299l-1.09484.78953c-.71171.51323-.84439 1.49493-.29447 2.17869.53706.66776 1.52563.80137 2.22069.30014l1.34597-.97062h1.43971zm-6.40869-2.855 2.22226-1.60254h.48546c.03311 0 .06595.00089.09852.00264.00893.00048.01788.00072.02682.00072h1.02963c1.1917 0 2.272.6206 2.8209 1.59147.3525.62352.4573 1.34111.3009 2.02631l-2.2129-2.17784c-.0935-.09205-.2195-.14364-.3507-.14364h-1.89509c-.10498 0-.2073.03304-.29246.09445l-1.47694 1.06507c-.26366.19014-.65281.13754-.85653-.11577-.19086-.2373-.14688-.56274.10013-.74087zm1.08179 6.62807c.17713-.1658.46286-.1653.63931.0016.17699.1674.17699.4387 0 .6061l-.67126.6349c-.17699.1674-.46396.1674-.64096 0-.17699-.1674-.17699-.4388 0-.6062zm-.72651-.6872-.67287.6364c-.17699.1674-.46396.1674-.64096 0-.17348-.1641-.17693-.428-.01034-.5961l.01066-.01.67126-.63477.0104-.00994c.17768-.1575.45677-.15423.63024.00982.17645.16689.17699.43709.00161.60459zm-1.36912-1.29171-.67126.63483-.0104.00994c-.17768.15754-.45677.15424-.63024-.00983-.17699-.16739-.17699-.43878 0-.60617l.67126-.63482c.17699-.1674.46396-.1674.64096 0 .17348.16406.17693.42804.01033.59608zm-1.64324-1.0322-.67125.63482c-.177.16739-.46396.16739-.64096 0s-.177-.43878 0-.60617l.67125-.63483c.177-.16739.46397-.16739.64096 0 .177.16739.177.43879 0 .60618z" fill="#212121"/></svg>